<?xml version="1.0" encoding="utf-8"?>
<!-- Generator: Adobe Illustrator 16.0.0, SVG Export Plug-In . SVG Version: 6.00 Build 0)  -->
<!DOCTYPE svg PUBLIC "-//W3C//DTD SVG 1.1//EN" "http://www.w3.org/Graphics/SVG/1.1/DTD/svg11.dtd">
<svg version="1.1" id="Layer_1" xmlns="http://www.w3.org/2000/svg" xmlns:xlink="http://www.w3.org/1999/xlink" x="0px" y="0px"
	 width="101.488px" height="101.488px" viewBox="0 0 101.488 101.488" enable-background="new 0 0 101.488 101.488"
	 xml:space="preserve">
<g>
	<g>
		<path fill="#FFFFFF" d="M50.616,101.235C22.706,101.235,0,78.528,0,50.616C0,22.707,22.706,0,50.616,0
			c27.911,0,50.619,22.707,50.619,50.616C101.235,78.528,78.527,101.235,50.616,101.235z M50.616,1.217
			c-27.239,0-49.4,22.161-49.4,49.4c0,27.241,22.161,49.402,49.4,49.402c27.241,0,49.403-22.161,49.403-49.402
			C100.019,23.378,77.857,1.217,50.616,1.217z"/>
	</g>
	<g id="Facebook_3_">
		<path fill="#FFFFFF" d="M55.666,80.93H42.139V51.208h-5.992V39.991h5.992v-7.67c-0.014-3.606,1.033-6.493,3.11-8.578
			c2.272-2.281,5.674-3.437,10.11-3.437h9.727v11.628h-7.313c-1.021,0-2.062,1.146-2.062,1.789v6.229h9.406l-0.046,0.651
			c-0.372,5.21-1.146,10.045-1.153,10.093l-0.083,0.511h-8.17V80.93z M43.356,79.713h11.093v-29.72h8.348
			c0.195-1.298,0.707-4.896,1.015-8.823h-9.314v-7.446c0-1.312,1.589-3.006,3.276-3.006h6.1v-9.195H55.36
			c-4.102,0-7.212,1.036-9.248,3.079c-1.841,1.848-2.77,4.443-2.757,7.716v8.89h-5.993v8.786h5.993L43.356,79.713L43.356,79.713z"/>
	</g>
</g>
</svg>
