<?xml version="1.0" encoding="utf-8"?>
<!-- Generator: Adobe Illustrator 16.0.0, SVG Export Plug-In . SVG Version: 6.00 Build 0)  -->
<!DOCTYPE svg PUBLIC "-//W3C//DTD SVG 1.1//EN" "http://www.w3.org/Graphics/SVG/1.1/DTD/svg11.dtd">
<svg version="1.1" id="Layer_1" xmlns="http://www.w3.org/2000/svg" xmlns:xlink="http://www.w3.org/1999/xlink" x="0px" y="0px"
	 width="101.488px" height="101.488px" viewBox="0 0 101.488 101.488" enable-background="new 0 0 101.488 101.488"
	 xml:space="preserve">
<g>
	<g>
		<path fill="#FFFFFF" d="M50.561,101.123C22.681,101.123,0,78.442,0,50.561C0,22.681,22.681,0,50.561,0
			s50.561,22.682,50.561,50.562C101.122,78.442,78.441,101.123,50.561,101.123z M50.561,1.215c-27.21,0-49.347,22.137-49.347,49.347
			c0,27.211,22.137,49.348,49.347,49.348s49.347-22.137,49.347-49.348C99.908,23.351,77.771,1.215,50.561,1.215z"/>
	</g>
	<g>
		<g>
			<path fill="#FFFFFF" d="M57.167,41.264l-0.148-0.1c-1.926-1.254-4.157-1.917-6.456-1.917c-2.3,0-4.532,0.663-6.455,1.917
				l-0.152,0.1H23.792v-2.137c0-8.562,6.967-15.529,15.53-15.529H61.8c8.563,0,15.531,6.967,15.531,15.529v2.136L57.167,41.264z
				 M25.007,40.05h18.59c2.086-1.318,4.49-2.016,6.965-2.016c2.474,0,4.879,0.696,6.965,2.016h18.59v-0.92
				c0-7.894-6.423-14.314-14.316-14.314H39.323c-7.894,0-14.315,6.421-14.315,14.314L25.007,40.05L25.007,40.05z"/>
		</g>
	</g>
	<g>
		<g>
			<path fill="#FFFFFF" d="M61.8,77.526H39.323c-8.563,0-15.53-6.967-15.53-15.53V45.54h16.221l-0.358,0.845
				c-0.622,1.466-0.938,3.021-0.938,4.622c0,6.531,5.313,11.847,11.846,11.847c6.529,0,11.844-5.314,11.844-11.847
				c0-1.603-0.314-3.157-0.937-4.622l-0.357-0.845h16.219v16.456C77.331,70.559,70.363,77.526,61.8,77.526z M25.008,46.755v15.24
				c0,7.895,6.422,14.315,14.315,14.315H61.8c7.895,0,14.316-6.422,14.316-14.315v-15.24H62.913c0.47,1.363,0.707,2.79,0.707,4.251
				c0,7.201-5.856,13.061-13.058,13.061s-13.061-5.858-13.061-13.061c0-1.46,0.238-2.887,0.708-4.251H25.008z"/>
		</g>
	</g>
	<g>
		<path fill="#FFFFFF" d="M63.437,38.041L63.437,38.041c-0.912,0-1.655-0.743-1.655-1.656v-3.726c0-0.913,0.743-1.656,1.655-1.656
			h3.727c0.913,0,1.654,0.743,1.654,1.656v3.726c0,0.913-0.741,1.656-1.654,1.656H63.437z M63.437,32.219
			c-0.242,0-0.439,0.197-0.439,0.44v3.726c0,0.243,0.197,0.441,0.439,0.441h3.727c0.243,0,0.441-0.198,0.441-0.441v-3.726
			c0-0.243-0.198-0.44-0.441-0.44H63.437z"/>
	</g>
	<g>
		<path fill="#FFFFFF" d="M50.859,56.53c-3.137,0-5.689-2.552-5.689-5.688c0-3.136,2.553-5.688,5.689-5.688
			c3.136,0,5.688,2.551,5.688,5.688C56.547,53.979,53.995,56.53,50.859,56.53z M50.859,46.368c-2.467,0-4.475,2.007-4.475,4.473
			c0,2.468,2.008,4.475,4.475,4.475c2.466,0,4.473-2.007,4.473-4.475C55.332,48.375,53.325,46.368,50.859,46.368z"/>
	</g>
</g>
</svg>
