<?xml version="1.0" encoding="utf-8"?>
<!-- Generator: Adobe Illustrator 16.0.0, SVG Export Plug-In . SVG Version: 6.00 Build 0)  -->
<!DOCTYPE svg PUBLIC "-//W3C//DTD SVG 1.1//EN" "http://www.w3.org/Graphics/SVG/1.1/DTD/svg11.dtd">
<svg version="1.1" id="Layer_1" xmlns="http://www.w3.org/2000/svg" xmlns:xlink="http://www.w3.org/1999/xlink" x="0px" y="0px"
	 width="44px" height="44px" viewBox="0 0 44 44" enable-background="new 0 0 44 44" xml:space="preserve">
<g>
	<g>
		<path fill="#36363C" d="M35.029,15.533c0,0.642-0.521,1.163-1.163,1.163h-23.69c-0.642,0-1.163-0.521-1.163-1.163v-0.145
			c0-0.642,0.521-1.163,1.163-1.163h23.69c0.643,0,1.163,0.521,1.163,1.163V15.533z"/>
		<path fill="#FFFFFF" d="M33.866,16.964h-23.69c-0.789,0-1.431-0.642-1.431-1.431v-0.145c0-0.789,0.642-1.431,1.431-1.431h23.69
			c0.788,0,1.43,0.642,1.43,1.431v0.145C35.296,16.322,34.654,16.964,33.866,16.964z"/>
	</g>
	<g>
		<path fill="#36363C" d="M33.866,20.766"/>
		<path fill="#FFFFFF" d="M33.866,23.505h-23.69c-0.789,0-1.431-0.642-1.431-1.431v-0.146c0-0.789,0.642-1.43,1.431-1.43h23.69
			c0.788,0,1.43,0.641,1.43,1.43v0.146C35.296,22.863,34.654,23.505,33.866,23.505z M33.866,21.034"/>
	</g>
	<g>
		<path fill="#36363C" d="M35.029,28.613c0,0.642-0.521,1.165-1.163,1.165h-23.69c-0.642,0-1.163-0.523-1.163-1.165V28.47
			c0-0.643,0.521-1.163,1.163-1.163h23.69c0.643,0,1.163,0.521,1.163,1.163V28.613z"/>
		<path fill="#FFFFFF" d="M33.866,30.045h-23.69c-0.789,0-1.431-0.642-1.431-1.432V28.47c0-0.789,0.642-1.433,1.431-1.433h23.69
			c0.788,0,1.43,0.644,1.43,1.433v0.144C35.296,29.403,34.654,30.045,33.866,30.045z M34.761,28.47"/>
	</g>
</g>
</svg>
