<?xml version="1.0" encoding="utf-8"?>
<!-- Generator: Adobe Illustrator 16.0.0, SVG Export Plug-In . SVG Version: 6.00 Build 0)  -->
<!DOCTYPE svg PUBLIC "-//W3C//DTD SVG 1.1//EN" "http://www.w3.org/Graphics/SVG/1.1/DTD/svg11.dtd">
<svg version="1.1" id="Layer_1" xmlns="http://www.w3.org/2000/svg" xmlns:xlink="http://www.w3.org/1999/xlink" x="0px" y="0px"
	 width="101.488px" height="101.488px" viewBox="0 0 101.488 101.488" enable-background="new 0 0 101.488 101.488"
	 xml:space="preserve">
<g>
	<path fill="#FFFFFF" d="M50.805,101.61C22.791,101.61,0,78.819,0,50.804C0,22.791,22.791,0,50.805,0
		c28.013,0,50.804,22.791,50.804,50.804C101.609,78.819,78.818,101.61,50.805,101.61z M50.805,1.221
		c-27.341,0-49.584,22.243-49.584,49.583c0,27.342,22.243,49.584,49.584,49.584s49.583-22.242,49.583-49.584
		C100.388,23.464,78.146,1.221,50.805,1.221z"/>
</g>
<g>
	<path fill="#FFFFFF" d="M40.28,74.47c-6.453,0-12.738-1.842-18.173-5.324c-0.239-0.153-0.341-0.453-0.245-0.72
		c0.096-0.267,0.365-0.428,0.646-0.4c0.89,0.104,1.8,0.158,2.706,0.158c4.621,0,9.007-1.346,12.783-3.907
		c-4.535-0.704-8.354-3.907-9.782-8.364c-0.065-0.205-0.019-0.43,0.125-0.591c0.143-0.161,0.36-0.235,0.571-0.195
		c0.824,0.157,1.659,0.222,2.483,0.191c-4.343-1.931-7.289-6.295-7.289-11.206l0.002-0.163c0.005-0.213,0.122-0.408,0.308-0.514
		c0.186-0.106,0.413-0.107,0.599-0.003c0.914,0.508,1.901,0.883,2.921,1.114c-2.368-2.289-3.733-5.453-3.733-8.812
		c0-2.168,0.574-4.298,1.659-6.16c0.101-0.174,0.281-0.286,0.48-0.301c0.199-0.019,0.395,0.067,0.521,0.223
		c5.645,6.924,13.907,11.229,22.768,11.89c-0.105-0.655-0.16-1.322-0.16-1.994c0-6.755,5.496-12.251,12.25-12.251
		c3.261,0,6.413,1.316,8.703,3.622c2.426-0.514,4.737-1.417,6.875-2.685c0.217-0.13,0.493-0.11,0.692,0.048
		c0.198,0.158,0.276,0.421,0.201,0.664c-0.642,2.003-1.787,3.795-3.312,5.217c1.392-0.323,2.745-0.775,4.051-1.354
		c0.247-0.11,0.536-0.043,0.713,0.165c0.176,0.208,0.19,0.506,0.04,0.732c-1.551,2.321-3.465,4.333-5.692,5.986
		c0.013,0.4,0.021,0.803,0.021,1.206C74.01,57.321,61.393,74.47,40.28,74.47z M24.952,69.403c4.706,2.523,9.956,3.848,15.327,3.848
		c20.349,0,32.509-16.528,32.509-32.51c0-0.496-0.01-0.989-0.033-1.479c-0.009-0.205,0.086-0.401,0.253-0.521
		c1.662-1.2,3.147-2.606,4.431-4.197c-1.578,0.536-3.211,0.906-4.878,1.105c-0.286,0.031-0.558-0.135-0.65-0.408
		c-0.094-0.272,0.018-0.573,0.264-0.721c1.832-1.099,3.294-2.685,4.228-4.564c-1.92,0.96-3.955,1.655-6.069,2.071
		c-0.204,0.04-0.418-0.028-0.563-0.181c-2.076-2.214-5.012-3.483-8.052-3.483c-6.082,0-11.029,4.948-11.029,11.03
		c0,0.854,0.095,1.701,0.285,2.515c0.043,0.186-0.003,0.382-0.126,0.529s-0.302,0.23-0.5,0.218
		c-9.196-0.461-17.836-4.706-23.848-11.686c-0.708,1.48-1.08,3.111-1.08,4.767c0,3.695,1.835,7.127,4.908,9.181
		c0.227,0.151,0.325,0.435,0.241,0.694c-0.083,0.259-0.352,0.418-0.6,0.423c-1.587-0.051-3.162-0.416-4.61-1.064
		c0.38,4.871,3.969,8.986,8.814,9.96c0.278,0.055,0.48,0.294,0.49,0.577c0.009,0.283-0.177,0.535-0.45,0.609
		c-1.447,0.394-2.966,0.521-4.488,0.364c1.686,3.979,5.57,6.64,9.957,6.721c0.258,0.005,0.485,0.171,0.567,0.416
		c0.082,0.245,0,0.515-0.203,0.675C35.711,67.689,30.477,69.478,24.952,69.403z"/>
</g>
</svg>
